<svg xmlns="http://www.w3.org/2000/svg" viewBox="0 0 32 32" width="32" height="32">
  <defs>
    <!-- AI-themed gradient -->
    <linearGradient id="aiGradient" x1="0%" y1="0%" x2="100%" y2="100%">
      <stop offset="0%" style="stop-color:#00d4ff;stop-opacity:1" />
      <stop offset="50%" style="stop-color:#7c3aed;stop-opacity:1" />
      <stop offset="100%" style="stop-color:#ec4899;stop-opacity:1" />
    </linearGradient>
    
    <!-- Glow effect -->
    <filter id="glow">
      <feGaussianBlur stdDeviation="2" result="coloredBlur"/>
      <feMerge> 
        <feMergeNode in="coloredBlur"/>
        <feMergeNode in="SourceGraphic"/>
      </feMerge>
    </filter>
    
    <!-- Neural network pattern -->
    <pattern id="neuralNet" x="0" y="0" width="8" height="8" patternUnits="userSpaceOnUse">
      <circle cx="2" cy="2" r="0.5" fill="rgba(255,255,255,0.1)"/>
      <circle cx="6" cy="6" r="0.5" fill="rgba(255,255,255,0.1)"/>
      <line x1="2" y1="2" x2="6" y2="6" stroke="rgba(255,255,255,0.05)" stroke-width="0.3"/>
    </pattern>
  </defs>
  
  <!-- Background circle with AI gradient -->
  <circle cx="16" cy="16" r="15" fill="url(#aiGradient)" stroke="rgba(255,255,255,0.2)" stroke-width="0.5"/>
  
  <!-- Subtle neural network overlay -->
  <circle cx="16" cy="16" r="14" fill="url(#neuralNet)" opacity="0.3"/>
  
  <!-- Letter M with futuristic design -->
  <g filter="url(#glow)">
    <path d="M 8 24 L 8 8 L 12 8 L 16 18 L 20 8 L 24 8 L 24 24 L 21 24 L 21 13 L 18 21 L 14 21 L 11 13 L 11 24 Z" 
          fill="white" 
          stroke="rgba(0,212,255,0.5)" 
          stroke-width="0.5"/>
  </g>
  
  <!-- AI accent dots -->
  <circle cx="7" cy="9" r="1" fill="rgba(0,212,255,0.8)" opacity="0.7"/>
  <circle cx="25" cy="9" r="1" fill="rgba(236,72,153,0.8)" opacity="0.7"/>
  <circle cx="16" cy="6" r="0.8" fill="rgba(124,58,237,0.8)" opacity="0.7"/>
  
  <!-- Subtle circuit lines -->
  <line x1="7" y1="9" x2="12" y2="8" stroke="rgba(0,212,255,0.3)" stroke-width="0.5" opacity="0.6"/>
  <line x1="25" y1="9" x2="20" y2="8" stroke="rgba(236,72,153,0.3)" stroke-width="0.5" opacity="0.6"/>
  <line x1="16" y1="6" x2="16" y2="8" stroke="rgba(124,58,237,0.3)" stroke-width="0.5" opacity="0.6"/>
</svg>